<svg width="100" height="100" viewBox="0 0 100 100" fill="none" xmlns="http://www.w3.org/2000/svg">
<circle cx="50" cy="50" r="50" fill="#FFEE00"/>
<g clip-path="url(#clip0_325_793)">
<path d="M75.0001 44.8661C74.9961 41.4159 72.2003 38.62 68.7501 38.6161H51.7858C48.3355 38.62 45.5397 41.4159 45.5358 44.8661V55.5804C45.5397 59.0306 48.3355 61.8265 51.7858 61.8304H57.1429C57.3796 61.8304 57.6068 61.9245 57.7742 62.092L66.0715 70.3892V62.7232C66.0715 62.2302 66.4713 61.8304 66.9643 61.8304H68.7501C72.2003 61.8265 74.9961 59.0306 75.0001 55.5804V44.8661ZM70.5358 56.4732H50.0001C49.507 56.4732 49.1072 56.0735 49.1072 55.5804C49.1072 55.0873 49.507 54.6875 50.0001 54.6875H70.5358C71.0288 54.6875 71.4286 55.0873 71.4286 55.5804C71.4286 56.0735 71.0288 56.4732 70.5358 56.4732ZM70.5358 51.1161H50.0001C49.507 51.1161 49.1072 50.7163 49.1072 50.2232C49.1072 49.7302 49.507 49.3304 50.0001 49.3304H70.5358C71.0288 49.3304 71.4286 49.7302 71.4286 50.2232C71.4286 50.7163 71.0288 51.1161 70.5358 51.1161ZM70.5358 45.7589H50.0001C49.507 45.7589 49.1072 45.3592 49.1072 44.8661C49.1072 44.373 49.507 43.9732 50.0001 43.9732H70.5358C71.0288 43.9732 71.4286 44.373 71.4286 44.8661C71.4286 45.3592 71.0288 45.7589 70.5358 45.7589Z" fill="black"/>
<path d="M40.4402 53.1634C40.6076 52.996 40.8347 52.9018 41.0714 52.9018H43.75V44.8661C43.7552 40.4301 47.3498 36.8356 51.7857 36.8304H54.4643V35.9375C54.4604 32.4873 51.6645 29.6914 48.2143 29.6875H31.25C27.7998 29.6914 25.0039 32.4873 25 35.9375V46.6518C25.0039 50.102 27.7998 52.8979 31.25 52.9018H33.0357C33.5288 52.9018 33.9286 53.3016 33.9286 53.7946V59.6749L40.4402 53.1634ZM28.5714 35.0446H47.3214C47.8145 35.0446 48.2143 35.4444 48.2143 35.9375C48.2143 36.4306 47.8145 36.8304 47.3214 36.8304H28.5714C28.0784 36.8304 27.6786 36.4306 27.6786 35.9375C27.6786 35.4444 28.0784 35.0446 28.5714 35.0446ZM28.5714 40.4018H41.9643C42.4574 40.4018 42.8571 40.8016 42.8571 41.2946C42.8571 41.7877 42.4574 42.1875 41.9643 42.1875H28.5714C28.0784 42.1875 27.6786 41.7877 27.6786 41.2946C27.6786 40.8016 28.0784 40.4018 28.5714 40.4018ZM28.5714 47.5446C28.0784 47.5446 27.6786 47.1449 27.6786 46.6518C27.6786 46.1587 28.0784 45.7589 28.5714 45.7589H41.0714C41.5645 45.7589 41.9643 46.1587 41.9643 46.6518C41.9643 47.1449 41.5645 47.5446 41.0714 47.5446H28.5714Z" fill="black"/>
</g>
<defs>
<clipPath id="clip0_325_793">
<rect width="50" height="50" fill="white" transform="translate(25 25)"/>
</clipPath>
</defs>
</svg>
