<svg width="100" height="100" viewBox="0 0 100 100" fill="none" xmlns="http://www.w3.org/2000/svg">
<circle cx="50" cy="50" r="50" fill="#FFEE00"/>
<path fill-rule="evenodd" clip-rule="evenodd" d="M60.6445 35.4507C64.9796 36.4567 66.6378 38.9915 68.7168 42.4805H60.6445V35.4507ZM35.3104 42.7734C36.1591 42.7734 36.7752 43.1831 36.7752 44.1406C36.7752 44.9482 36.1217 45.6032 35.3146 45.6055H26.4648C25.6557 45.6055 25 46.2616 25 47.0703C25 47.8794 25.6557 48.5352 26.4648 48.5352H39.6484C40.4652 48.5352 41.119 49.1905 41.119 50C41.119 50.8091 40.4633 51.4648 39.6542 51.4648H26.4648C25.6557 51.4648 25 52.1206 25 52.9297C25 53.7388 25.6557 54.3945 26.4648 54.3945H29.6875V58.7891C29.6875 59.5982 30.3432 60.2539 31.1523 60.2539H34.0969C34.6218 62.8395 36.9064 64.7461 39.5996 64.7461C42.2928 64.7461 44.5774 62.8395 45.1023 60.2539H59.9758C60.5007 62.8395 62.7853 64.7461 65.4785 64.7461C68.1717 64.7461 70.4563 62.8395 70.9812 60.2539H73.5352C74.3443 60.2539 75 59.5982 75 58.7891V50C75 45.702 70.4666 45.4166 70.4624 45.4102H59.1797C58.3706 45.4102 57.7148 44.7544 57.7148 43.9453V35.1562H31.1523C30.3432 35.1562 29.6875 35.812 29.6875 36.6211V39.8438H27.9297C27.1206 39.8438 26.4648 40.4995 26.4648 41.3086C26.4648 42.1177 27.1206 42.7734 27.9297 42.7734H35.3104ZM67.3775 57.2319C68.4261 58.2806 68.4261 59.9815 67.3775 61.0302C65.6906 62.7171 62.793 61.517 62.793 59.1309C62.793 56.7451 65.6906 55.545 67.3775 57.2319ZM41.4986 57.2319C42.5472 58.2806 42.5472 59.9815 41.4986 61.0302C39.8117 62.7171 36.9141 61.517 36.9141 59.1309C36.9141 56.7451 39.8117 55.545 41.4986 57.2319Z" fill="black"/>
</svg>
