<svg width="100" height="100" viewBox="0 0 100 100" fill="none" xmlns="http://www.w3.org/2000/svg">
<circle cx="50" cy="50" r="50" fill="#FFEE00"/>
<path d="M73.5396 51.835C74.3977 50.7569 74.411 49.2329 73.572 48.1399L71.4845 45.4208C70.9958 44.7842 70.7826 43.9783 70.8925 43.1832L71.3557 39.8319C71.5449 38.4629 70.7744 37.1418 69.4898 36.6324L66.3514 35.3879C65.5824 35.0829 64.9735 34.474 64.6685 33.705L63.424 30.5666C62.9146 29.282 61.5935 28.5116 60.2246 28.7008L56.8757 29.1636C56.0792 29.2737 55.2718 29.0594 54.6347 28.5689L51.8275 26.4073C50.75 25.5776 49.2492 25.5765 48.1704 26.4046L45.4207 28.5156C44.784 29.0043 43.9781 29.2175 43.1831 29.1077L39.8317 28.6445C38.4628 28.4553 37.1417 29.2257 36.6323 30.5103L35.3878 33.6487C35.0828 34.4177 34.4739 35.0266 33.7049 35.3316L30.5665 36.5761C29.2819 37.0855 28.5114 38.4066 28.7007 39.7756L29.1635 43.1244C29.2736 43.9209 29.0593 44.7283 28.5687 45.3654L26.4072 48.1726C25.5775 49.2501 25.5764 50.751 26.4045 51.8297L28.5155 54.5795C29.0042 55.2161 29.2174 56.022 29.1075 56.817L28.6443 60.1684C28.4551 61.5373 29.2256 62.8584 30.5102 63.3678L33.6486 64.6124C34.4176 64.9173 35.0265 65.5262 35.3315 66.2952L36.576 69.4336C37.0854 70.7182 38.4065 71.4887 39.7754 71.2995L43.1268 70.8363C43.9218 70.7264 44.7277 70.9396 45.3644 71.4284L48.1169 73.5414C49.1943 74.3685 50.6931 74.3685 51.7705 73.5414L54.523 71.4284C55.1597 70.9396 55.9655 70.7264 56.7606 70.8363L60.1119 71.2995C61.4809 71.4887 62.802 70.7182 63.3114 69.4336L64.5608 66.2829C64.8629 65.5212 65.4635 64.9161 66.223 64.6084L69.4003 63.321C70.6734 62.8052 71.4336 61.4906 71.2455 60.1298L70.7841 56.7914C70.6717 55.9783 70.8974 55.1547 71.4086 54.5124L73.5396 51.835ZM49.8892 55.8872C48.824 57.1218 46.9677 57.2796 45.7095 56.2424L40.7351 52.1419C40.1297 51.6428 40.0425 50.7479 40.5401 50.1414C41.0381 49.5345 41.9335 49.4456 42.5412 49.9427L45.3778 52.2636C46.6347 53.2919 48.4816 53.1335 49.5449 51.9061L57.2909 42.9653C57.8042 42.3727 58.701 42.3091 59.2929 42.8231C59.883 43.3356 59.9474 44.2288 59.4368 44.8206L49.8892 55.8872Z" fill="black"/>
</svg>
