<svg width="55" height="55" viewBox="0 0 55 55" fill="none" xmlns="http://www.w3.org/2000/svg">
<circle cx="27.5" cy="27.5" r="27.5" fill="#B63834"/>
<path d="M34.584 15.96L22.008 39.864H19.16L31.768 15.96H34.584ZM18.872 16.408C20.6 16.408 21.9227 16.9307 22.84 17.976C23.7573 19 24.216 20.4933 24.216 22.456C24.216 24.5253 23.7573 26.1147 22.84 27.224C21.9227 28.312 20.6107 28.856 18.904 28.856C17.1547 28.856 15.8107 28.3227 14.872 27.256C13.9547 26.168 13.496 24.6213 13.496 22.616C13.496 20.632 13.9653 19.1067 14.904 18.04C15.8427 16.952 17.1653 16.408 18.872 16.408ZM18.84 18.744C17.4533 18.744 16.76 20.088 16.76 22.776C16.76 24.12 16.92 25.0907 17.24 25.688C17.56 26.264 18.0827 26.552 18.808 26.552C19.5547 26.552 20.088 26.232 20.408 25.592C20.7493 24.952 20.92 23.9067 20.92 22.456C20.92 21.9653 20.8987 21.56 20.856 21.24C20.8347 20.8987 20.76 20.5147 20.632 20.088C20.5253 19.64 20.312 19.3093 19.992 19.096C19.6933 18.8613 19.3093 18.744 18.84 18.744ZM35.32 27C37.048 27 38.3707 27.5227 39.288 28.568C40.2053 29.592 40.664 31.0853 40.664 33.048C40.664 35.1173 40.2053 36.7067 39.288 37.816C38.3707 38.904 37.0587 39.448 35.352 39.448C33.6027 39.448 32.2587 38.9147 31.32 37.848C30.4027 36.76 29.944 35.2133 29.944 33.208C29.944 31.224 30.4133 29.6987 31.352 28.632C32.2907 27.544 33.6133 27 35.32 27ZM35.288 29.336C33.9013 29.336 33.208 30.68 33.208 33.368C33.208 34.712 33.368 35.6827 33.688 36.28C34.008 36.856 34.5307 37.144 35.256 37.144C36.0027 37.144 36.536 36.824 36.856 36.184C37.1973 35.544 37.368 34.4987 37.368 33.048C37.368 32.5573 37.3467 32.152 37.304 31.832C37.2827 31.4907 37.208 31.1067 37.08 30.68C36.9733 30.232 36.76 29.9013 36.44 29.688C36.1413 29.4533 35.7573 29.336 35.288 29.336Z" fill="white"/>
</svg>
