<svg width="55" height="55" viewBox="0 0 55 55" fill="none" xmlns="http://www.w3.org/2000/svg">
<circle cx="27.5" cy="27.5" r="27.5" fill="#682A90"/>
<path d="M14.3241 29V20.456H16.2321L19.7481 26.18V20.456H21.5481V29H19.6761L16.1361 23.264V29H14.3241ZM29.6266 20.456V21.992H25.0786V23.852H29.2546V25.328H25.0786V27.428H29.7106V29H23.2186V20.456H29.6266ZM30.2079 20.456H32.0919L33.4599 26.264L34.9599 20.456H36.7239L38.1999 26.336L39.6159 20.456H41.4639L39.1599 29H37.2879L35.8239 23.168L34.3839 29H32.4759L30.2079 20.456ZM15.3468 37H14.2188V35.264H12.6268V37H11.4988V32.872H12.6268V34.368H14.2188V32.872H15.3468V37ZM20.369 34.936C20.369 35.5973 20.1743 36.128 19.785 36.528C19.401 36.928 18.8863 37.128 18.241 37.128C17.5956 37.128 17.0783 36.928 16.689 36.528C16.2996 36.128 16.105 35.5973 16.105 34.936C16.105 34.28 16.3023 33.752 16.697 33.352C17.0916 32.952 17.6116 32.752 18.257 32.752C18.8916 32.752 19.401 32.952 19.785 33.352C20.1743 33.752 20.369 34.28 20.369 34.936ZM19.233 34.928C19.233 34.5173 19.1423 34.1973 18.961 33.968C18.785 33.7333 18.5396 33.616 18.225 33.616C17.921 33.616 17.681 33.7333 17.505 33.968C17.329 34.2027 17.241 34.5253 17.241 34.936C17.241 35.3573 17.329 35.6853 17.505 35.92C17.681 36.1547 17.9263 36.272 18.241 36.272C18.5556 36.272 18.7983 36.1547 18.969 35.92C19.145 35.68 19.233 35.3493 19.233 34.928ZM21.0996 32.872H23.4756C23.8649 32.872 24.1823 32.96 24.4276 33.136C24.6729 33.3067 24.7956 33.5653 24.7956 33.912C24.7956 34.3067 24.6089 34.5893 24.2356 34.76C24.7369 34.904 24.9876 35.24 24.9876 35.768C24.9876 36.1573 24.8543 36.4613 24.5876 36.68C24.3263 36.8933 23.9929 37 23.5876 37H21.0996V32.872ZM22.2196 34.528H22.9716C23.4196 34.528 23.6436 34.3707 23.6436 34.056C23.6436 33.8747 23.5823 33.752 23.4596 33.688C23.3423 33.624 23.1796 33.592 22.9716 33.592H22.2196V34.528ZM22.2196 36.264H23.0596C23.2943 36.264 23.4783 36.2267 23.6116 36.152C23.7449 36.0773 23.8116 35.9333 23.8116 35.72C23.8116 35.5013 23.7396 35.3547 23.5956 35.28C23.4516 35.2053 23.2569 35.168 23.0116 35.168H22.2196V36.264ZM29.5733 37H28.4853V34.208L27.0133 37H25.7253V32.872H26.8133V35.664L28.2853 32.872H29.5733V37ZM34.3155 37H33.1875V35.264H31.5955V37H30.4675V32.872H31.5955V34.368H33.1875V32.872H34.3155V37ZM39.4097 37H38.0337L36.8417 35.224L36.3377 35.736V37H35.2257V32.872H36.3377V34.504L37.8497 32.872H39.1857L37.5857 34.472L39.4097 37ZM43.6275 37H42.4755C42.4381 36.8933 42.4115 36.76 42.3955 36.6C42.0488 36.9467 41.6035 37.12 41.0595 37.12C40.6008 37.12 40.2408 37.0107 39.9795 36.792C39.7181 36.568 39.5875 36.2613 39.5875 35.872C39.5875 35.696 39.6088 35.5413 39.6515 35.408C39.6995 35.2747 39.7741 35.1627 39.8755 35.072C39.9821 34.9813 40.0808 34.9067 40.1715 34.848C40.2675 34.7893 40.3981 34.7413 40.5635 34.704C40.7288 34.6667 40.8621 34.64 40.9635 34.624C41.0648 34.6027 41.2061 34.5813 41.3875 34.56C41.7875 34.5067 42.0541 34.4507 42.1875 34.392C42.3261 34.3333 42.3955 34.224 42.3955 34.064C42.3955 33.696 42.1475 33.512 41.6515 33.512C41.3901 33.512 41.1981 33.56 41.0755 33.656C40.9528 33.7467 40.8728 33.9093 40.8355 34.144H39.7715C39.8355 33.216 40.4728 32.752 41.6835 32.752C42.8835 32.752 43.4835 33.2 43.4835 34.096V35.88C43.4835 36.4027 43.5315 36.776 43.6275 37ZM42.3875 34.992C42.2541 35.072 41.9875 35.144 41.5875 35.208C41.2515 35.2613 41.0328 35.328 40.9315 35.408C40.8141 35.504 40.7555 35.6427 40.7555 35.824C40.7555 35.9947 40.8088 36.1307 40.9155 36.232C41.0275 36.328 41.1821 36.376 41.3795 36.376C41.6835 36.376 41.9261 36.296 42.1075 36.136C42.2941 35.9707 42.3875 35.744 42.3875 35.456V34.992Z" fill="white"/>
</svg>
