<svg width="55" height="55" viewBox="0 0 55 55" fill="none" xmlns="http://www.w3.org/2000/svg">
<circle cx="27.5" cy="27.5" r="27.5" fill="#FFEE49"/>
<path d="M12.1363 20.456H16.1803C16.9803 20.456 17.6323 20.636 18.1363 20.996C18.6483 21.348 18.9043 21.884 18.9043 22.604C18.9043 23.004 18.8003 23.36 18.5923 23.672C18.3843 23.976 18.1003 24.208 17.7403 24.368C18.7803 24.664 19.3003 25.36 19.3003 26.456C19.3003 27.264 19.0283 27.892 18.4843 28.34C17.9403 28.78 17.2483 29 16.4083 29H12.1363V20.456ZM13.9603 21.908V23.912H15.6643C16.6083 23.912 17.0803 23.58 17.0803 22.916C17.0803 22.524 16.9523 22.26 16.6963 22.124C16.4403 21.98 16.0963 21.908 15.6643 21.908H13.9603ZM13.9603 25.184V27.512H15.8443C16.3323 27.512 16.7163 27.432 16.9963 27.272C17.2843 27.112 17.4283 26.804 17.4283 26.348C17.4283 25.884 17.2763 25.576 16.9723 25.424C16.6763 25.264 16.2683 25.184 15.7483 25.184H13.9603ZM27.0055 20.456V21.992H22.4575V23.852H26.6335V25.328H22.4575V27.428H27.0895V29H20.5975V20.456H27.0055ZM34.7028 23H32.9268C32.8548 22.152 32.3148 21.728 31.3068 21.728C30.8748 21.728 30.5348 21.816 30.2868 21.992C30.0468 22.16 29.9268 22.396 29.9268 22.7C29.9268 22.804 29.9428 22.896 29.9748 22.976C30.0068 23.056 30.0668 23.132 30.1548 23.204C30.2428 23.268 30.3308 23.324 30.4188 23.372C30.5068 23.412 30.6348 23.46 30.8028 23.516C30.9788 23.564 31.1348 23.608 31.2708 23.648C31.4148 23.688 31.6148 23.74 31.8708 23.804C32.1268 23.868 32.3508 23.928 32.5428 23.984C33.3828 24.224 34.0068 24.524 34.4148 24.884C34.8308 25.244 35.0388 25.76 35.0388 26.432C35.0388 26.92 34.9388 27.348 34.7388 27.716C34.5388 28.076 34.2668 28.364 33.9228 28.58C33.5868 28.788 33.2148 28.94 32.8068 29.036C32.4068 29.14 31.9788 29.192 31.5228 29.192C30.3628 29.192 29.4548 28.928 28.7988 28.4C28.1508 27.864 27.8228 27.112 27.8148 26.144H29.6748C29.7068 27.216 30.3508 27.752 31.6068 27.752C32.0948 27.752 32.4788 27.652 32.7588 27.452C33.0468 27.244 33.1908 26.964 33.1908 26.612C33.1908 26.316 33.0588 26.1 32.7948 25.964C32.5388 25.828 31.9948 25.64 31.1628 25.4C31.1148 25.392 31.0788 25.384 31.0548 25.376C31.0308 25.368 30.9988 25.36 30.9588 25.352C30.9188 25.336 30.8828 25.324 30.8508 25.316C30.5628 25.236 30.3628 25.18 30.2508 25.148C30.1388 25.108 29.9588 25.044 29.7108 24.956C29.4708 24.868 29.2948 24.788 29.1828 24.716C29.0708 24.644 28.9308 24.544 28.7628 24.416C28.6028 24.288 28.4868 24.156 28.4148 24.02C28.3428 23.876 28.2748 23.704 28.2108 23.504C28.1548 23.296 28.1268 23.072 28.1268 22.832C28.1268 22.056 28.4268 21.436 29.0268 20.972C29.6268 20.508 30.4228 20.276 31.4148 20.276C32.3748 20.276 33.1588 20.504 33.7668 20.96C34.3748 21.408 34.6868 22.088 34.7028 23ZM42.5198 20.456V22.052H39.9518V29H38.0678V22.052H35.4998V20.456H42.5198ZM16.565 37H15.437V33.744H14.349L14.301 35.2C14.2956 35.36 14.2903 35.488 14.285 35.584C14.2796 35.6747 14.2636 35.7973 14.237 35.952C14.2156 36.1067 14.189 36.232 14.157 36.328C14.125 36.4187 14.0743 36.5227 14.005 36.64C13.941 36.752 13.8636 36.84 13.773 36.904C13.6876 36.9627 13.5756 37.0133 13.437 37.056C13.2983 37.104 13.1436 37.128 12.973 37.128C12.6956 37.128 12.4903 37.1013 12.357 37.048V36.144C12.4903 36.1707 12.597 36.184 12.677 36.184C13.0023 36.184 13.173 35.8987 13.189 35.328L13.253 32.872H16.565V37ZM21.2192 32.872L19.6992 36.984C19.6245 37.192 19.5685 37.336 19.5312 37.416C19.4992 37.5013 19.4458 37.6187 19.3712 37.768C19.3018 37.9173 19.2352 38.0213 19.1712 38.08C19.1125 38.1387 19.0298 38.2053 18.9232 38.28C18.8218 38.3547 18.7045 38.4053 18.5712 38.432C18.4432 38.4587 18.2938 38.472 18.1232 38.472C17.9845 38.472 17.7312 38.4693 17.3632 38.464V37.528H17.9152C18.1018 37.528 18.2432 37.48 18.3392 37.384C18.4405 37.288 18.4912 37.152 18.4912 36.976C18.4912 36.9333 18.4805 36.88 18.4592 36.816L16.9632 32.872H18.1872L19.1312 35.68L20.0432 32.872H21.2192ZM24.2076 34.584V32.872H25.3356V37H24.2076V35.376C23.7169 35.4987 23.2769 35.56 22.8876 35.56C22.4396 35.56 22.0956 35.4347 21.8556 35.184C21.6209 34.928 21.5036 34.576 21.5036 34.128V32.872H22.6316V33.896C22.6316 34.2 22.6743 34.4107 22.7596 34.528C22.8503 34.6453 23.0183 34.704 23.2636 34.704C23.5996 34.704 23.9143 34.664 24.2076 34.584ZM32.0733 37H26.2253V32.872H27.3533V36.128H28.5853V32.872H29.7133V36.128H30.9453V32.872H32.0733V37ZM36.8315 35.72C36.7035 36.1627 36.4662 36.5067 36.1195 36.752C35.7782 36.9973 35.3702 37.12 34.8955 37.12C34.2609 37.12 33.7489 36.9227 33.3595 36.528C32.9755 36.1333 32.7835 35.6107 32.7835 34.96C32.7835 34.32 32.9782 33.792 33.3675 33.376C33.7569 32.96 34.2529 32.752 34.8555 32.752C35.4795 32.752 35.9755 32.9653 36.3435 33.392C36.7115 33.8133 36.8955 34.3867 36.8955 35.112V35.224H33.9355C33.9409 35.5813 34.0262 35.8533 34.1915 36.04C34.3622 36.2267 34.5995 36.32 34.9035 36.32C35.3035 36.32 35.5835 36.12 35.7435 35.72H36.8315ZM35.7435 34.504C35.7169 34.232 35.6289 34.0107 35.4795 33.84C35.3302 33.664 35.1222 33.576 34.8555 33.576C34.6049 33.576 34.3969 33.6587 34.2315 33.824C34.0662 33.9893 33.9675 34.216 33.9355 34.504H35.7435ZM41.4253 35.72C41.2973 36.1627 41.0599 36.5067 40.7133 36.752C40.3719 36.9973 39.9639 37.12 39.4893 37.12C38.8546 37.12 38.3426 36.9227 37.9533 36.528C37.5693 36.1333 37.3773 35.6107 37.3773 34.96C37.3773 34.32 37.5719 33.792 37.9613 33.376C38.3506 32.96 38.8466 32.752 39.4493 32.752C40.0733 32.752 40.5693 32.9653 40.9373 33.392C41.3053 33.8133 41.4893 34.3867 41.4893 35.112V35.224H38.5293C38.5346 35.5813 38.6199 35.8533 38.7853 36.04C38.9559 36.2267 39.1933 36.32 39.4973 36.32C39.8973 36.32 40.1773 36.12 40.3373 35.72H41.4253ZM40.3373 34.504C40.3106 34.232 40.2226 34.0107 40.0733 33.84C39.9239 33.664 39.7159 33.576 39.4493 33.576C39.1986 33.576 38.9906 33.6587 38.8253 33.824C38.6599 33.9893 38.5613 34.216 38.5293 34.504H40.3373Z" fill="#333333"/>
</svg>
