<svg width="100" height="100" viewBox="0 0 100 100" fill="none" xmlns="http://www.w3.org/2000/svg">
<circle cx="50" cy="50" r="50" fill="#FFEE00"/>
<g clip-path="url(#clip0_325_813)">
<path fill-rule="evenodd" clip-rule="evenodd" d="M72.6084 55.0658H66.0593V73.1851H72.6084C73.2425 73.1845 73.8504 72.9323 74.2988 72.4839C74.7472 72.0355 74.9994 71.4276 75.0001 70.7935V57.4575C74.9992 56.8235 74.7469 56.2157 74.2986 55.7673C73.8503 55.319 73.2425 55.0667 72.6085 55.0658H72.6084ZM37.7687 51.8003C44.8097 51.8003 50.538 46.073 50.538 39.0318C50.538 31.9906 44.8094 26.2638 37.7687 26.2638C36.0889 26.2592 34.4248 26.586 32.8716 27.2256C31.3184 27.8652 29.9067 28.805 28.7173 29.9911C27.5279 31.1772 26.5843 32.5863 25.9404 34.1377C25.2965 35.6891 24.9651 37.3523 24.9651 39.0321C24.9651 40.7118 25.2965 42.375 25.9404 43.9264C26.5843 45.4778 27.5279 46.887 28.7173 48.0731C29.9067 49.2592 31.3184 50.1989 32.8716 50.8385C34.4248 51.4781 36.0889 51.8049 37.7687 51.8003ZM38.9405 45.9403V46.7323C38.9405 47.0431 38.8171 47.3412 38.5973 47.5609C38.3775 47.7807 38.0795 47.9042 37.7687 47.9042C37.4579 47.9042 37.1598 47.7807 36.94 47.5609C36.7203 47.3412 36.5968 47.0431 36.5968 46.7323V45.9403C35.8558 45.7709 35.1943 45.3552 34.7201 44.7611C34.246 44.1671 33.9873 43.4298 33.9863 42.6697V41.2146C33.9863 40.9038 34.1098 40.6058 34.3296 40.386C34.5493 40.1662 34.8474 40.0427 35.1582 40.0427C35.469 40.0427 35.7671 40.1662 35.9869 40.386C36.2066 40.6058 36.3301 40.9038 36.3301 41.2146V42.6697C36.3304 42.9378 36.4371 43.1948 36.6267 43.3843C36.8163 43.5738 37.0733 43.6803 37.3414 43.6804H38.1965C38.4646 43.6802 38.7216 43.5737 38.9113 43.3842C39.1009 43.1947 39.2077 42.9378 39.2082 42.6697V41.2146C39.2078 40.9465 39.1011 40.6895 38.9114 40.5C38.7217 40.3105 38.4646 40.2039 38.1965 40.2038H37.3414C36.4521 40.2026 35.5995 39.8488 34.9705 39.22C34.3416 38.5912 33.9877 37.7386 33.9864 36.8493V35.3942C33.9873 34.6341 34.2459 33.8968 34.7201 33.3027C35.1942 32.7086 35.8559 32.2929 36.5969 32.1236V31.3316C36.5969 31.0208 36.7203 30.7227 36.9401 30.503C37.1599 30.2832 37.458 30.1597 37.7688 30.1597C38.0796 30.1597 38.3776 30.2832 38.5974 30.503C38.8172 30.7227 38.9406 31.0208 38.9406 31.3316V32.1236C39.6818 32.2927 40.3437 32.7083 40.818 33.3024C41.2924 33.8965 41.5511 34.634 41.552 35.3942V36.8493C41.552 37.1601 41.4285 37.4582 41.2087 37.6779C40.989 37.8977 40.6909 38.0212 40.3801 38.0212C40.0693 38.0212 39.7712 37.8977 39.5514 37.6779C39.3317 37.4582 39.2082 37.1601 39.2082 36.8493V35.3942C39.2079 35.126 39.1011 34.8689 38.9115 34.6792C38.7218 34.4896 38.4647 34.3829 38.1965 34.3825H37.3414C37.0732 34.3828 36.8161 34.4895 36.6265 34.6792C36.4369 34.8688 36.3303 35.126 36.3301 35.3942V36.8493C36.3306 37.1173 36.4373 37.3742 36.6268 37.5637C36.8164 37.7532 37.0734 37.8597 37.3414 37.86H38.1965C39.086 37.8608 39.9389 38.2145 40.5679 38.8434C41.197 39.4723 41.5509 40.3251 41.5519 41.2146V42.6697C41.5509 43.4299 41.2921 44.1673 40.8177 44.7613C40.3434 45.3554 39.6816 45.771 38.9405 45.9403ZM63.7159 54.5762V71.8103C63.0679 72.0388 62.4395 72.3197 61.8371 72.6502C60.8061 73.1842 59.7403 73.7361 58.2721 73.7361H47.3115C46.7287 73.7364 46.1562 73.5822 45.6523 73.2893C45.1484 72.9964 44.7311 72.5752 44.4429 72.0686C44.1547 71.562 44.0059 70.9881 44.0116 70.4052C44.0173 69.8224 44.1773 69.2515 44.4754 68.7507C43.8566 68.2525 43.4383 67.5478 43.2975 66.766C43.1566 65.9842 43.3027 65.1778 43.7087 64.495C43.0899 63.997 42.6716 63.2923 42.5308 62.5105C42.3901 61.7287 42.5362 60.9223 42.9425 60.2397C42.4106 59.8116 42.0247 59.229 41.8379 58.5723C41.6511 57.9156 41.6726 57.2171 41.8995 56.5732C42.1265 55.9293 42.5476 55.3716 43.1048 54.9771C43.6621 54.5826 44.328 54.3707 45.0108 54.3706H51.0107C49.8575 50.2388 50.7789 46.5789 53.7188 43.7109C53.7433 43.6874 53.7686 43.6639 53.7958 43.6426C54.0721 43.4154 54.3964 43.2541 54.7443 43.1709C55.0921 43.0876 55.4543 43.0846 55.8035 43.162C56.8328 43.3866 57.5331 44.1922 57.547 45.1662C57.5585 46.0802 57.7101 47.6766 57.9962 49.9123C58.0084 50.0095 58.0087 50.1079 57.9971 50.2052C57.958 50.5148 57.8428 51.4473 59.999 52.3412C61.2833 52.6414 62.5126 53.3798 63.7155 54.5762H63.7159Z" fill="black"/>
</g>
<defs>
<clipPath id="clip0_325_813">
<rect width="50" height="50" fill="white" transform="translate(25 25)"/>
</clipPath>
</defs>
</svg>
