<svg width="100" height="100" viewBox="0 0 100 100" fill="none" xmlns="http://www.w3.org/2000/svg">
<circle cx="50" cy="50" r="50" fill="#FFEE00"/>
<path d="M67.0625 35.2332H63.6094V38.3113C63.6094 38.966 63.3493 39.594 62.8863 40.0569C62.4233 40.5199 61.7954 40.78 61.1406 40.78C60.4859 40.78 59.8579 40.5199 59.395 40.0569C58.932 39.594 58.6719 38.966 58.6719 38.3113V35.2332H52.3438V38.3113C52.3452 38.6364 52.2824 38.9586 52.1589 39.2593C52.0355 39.5601 51.8539 39.8335 51.6245 40.0639C51.3951 40.2943 51.1225 40.4771 50.8223 40.6018C50.522 40.7266 50.2001 40.7908 49.875 40.7908C49.5499 40.7908 49.228 40.7266 48.9278 40.6018C48.6276 40.4771 48.3549 40.2943 48.1256 40.0639C47.8962 39.8335 47.7146 39.5601 47.5911 39.2593C47.4677 38.9586 47.4049 38.6364 47.4063 38.3113V35.2332H41.0782V38.3113C41.0782 38.966 40.8181 39.594 40.3551 40.0569C39.8921 40.5199 39.2642 40.78 38.6094 40.78C37.9547 40.78 37.3267 40.5199 36.8638 40.0569C36.4008 39.594 36.1407 38.966 36.1407 38.3113V35.2332H32.6875C31.4446 35.2341 30.2529 35.7283 29.374 36.6072C28.4952 37.486 28.001 38.6778 28 39.9207V44.7234H71.75V39.9207C71.749 38.6778 71.2548 37.486 70.376 36.6072C69.4971 35.7283 68.3054 35.2341 67.0625 35.2332Z" fill="black"/>
<path d="M38.6094 39.2253C38.8505 39.2234 39.081 39.1262 39.2508 38.955C39.4206 38.7838 39.5158 38.5524 39.5156 38.3113V33.9128C39.5156 33.7938 39.4922 33.676 39.4466 33.566C39.4011 33.4561 39.3343 33.3562 39.2502 33.272C39.166 33.1879 39.0661 33.1211 38.9562 33.0756C38.8462 33.03 38.7284 33.0066 38.6094 33.0066C38.4904 33.0066 38.3725 33.03 38.2626 33.0756C38.1526 33.1211 38.0527 33.1879 37.9686 33.272C37.8844 33.3562 37.8177 33.4561 37.7721 33.566C37.7266 33.676 37.7031 33.7938 37.7031 33.9128V38.3113C37.703 38.5524 37.7982 38.7838 37.9679 38.955C38.1377 39.1262 38.3683 39.2234 38.6094 39.2253Z" fill="black"/>
<path d="M49.875 39.2254C50.1161 39.2235 50.3467 39.1263 50.5164 38.9551C50.6862 38.7838 50.7814 38.5524 50.7813 38.3113V33.9129C50.7821 33.7933 50.7593 33.6748 50.7142 33.5641C50.669 33.4534 50.6024 33.3527 50.5181 33.2679C50.4339 33.183 50.3337 33.1157 50.2233 33.0697C50.113 33.0238 49.9946 33.0001 49.875 33.0001C49.7555 33.0001 49.6371 33.0238 49.5267 33.0697C49.4163 33.1157 49.3162 33.183 49.2319 33.2679C49.1477 33.3527 49.0811 33.4534 49.0359 33.5641C48.9908 33.6748 48.9679 33.7933 48.9688 33.9129V38.3113C48.9687 38.5524 49.0638 38.7838 49.2336 38.955C49.4033 39.1263 49.6339 39.2234 49.875 39.2254Z" fill="black"/>
<path d="M61.1406 39.2253C61.3817 39.2234 61.6123 39.1262 61.7821 38.955C61.9518 38.7838 62.047 38.5524 62.0469 38.3113V33.9128C62.0469 33.6725 61.9514 33.442 61.7814 33.272C61.6115 33.1021 61.381 33.0066 61.1406 33.0066C60.9003 33.0066 60.6698 33.1021 60.4998 33.272C60.3299 33.442 60.2344 33.6725 60.2344 33.9128V38.3113C60.2342 38.5524 60.3294 38.7838 60.4992 38.955C60.669 39.1262 60.8995 39.2234 61.1406 39.2253Z" fill="black"/>
<path d="M28 44.3035V62.7957C28.001 64.0386 28.4952 65.2303 29.374 66.1091C30.2529 66.988 31.4446 67.4822 32.6875 67.4832H67.0625C68.3054 67.4822 69.4971 66.988 70.376 66.1091C71.2548 65.2303 71.749 64.0386 71.75 62.7957V44.3035H28ZM49.875 45.1472C51.8451 45.1472 53.7709 45.7314 55.409 46.8259C57.0471 47.9205 58.3238 49.4761 59.0777 51.2963C59.8316 53.1164 60.0289 55.1192 59.6445 57.0514C59.2602 58.9837 58.3115 60.7585 56.9184 62.1516C55.5254 63.5447 53.7505 64.4934 51.8183 64.8777C49.886 65.262 47.8832 65.0648 46.0631 64.3109C44.243 63.5569 42.6873 62.2802 41.5928 60.6422C40.4983 59.0041 39.9141 57.0782 39.9141 55.1082C39.9171 52.4673 40.9676 49.9355 42.835 48.0681C44.7023 46.2007 47.2341 45.1503 49.875 45.1472Z" fill="black"/>
<path d="M49.875 63.5066C51.5361 63.5066 53.1598 63.014 54.5409 62.0912C55.922 61.1684 56.9985 59.8567 57.6341 58.3221C58.2698 56.7875 58.4361 55.0988 58.1121 53.4697C57.788 51.8406 56.9881 50.3441 55.8136 49.1696C54.639 47.995 53.1426 47.1951 51.5135 46.8711C49.8843 46.547 48.1957 46.7134 46.6611 47.349C45.1264 47.9847 43.8148 49.0611 42.892 50.4422C41.9691 51.8234 41.4766 53.4471 41.4766 55.1082C41.4784 57.335 42.3639 59.4701 43.9385 61.0447C45.5131 62.6193 47.6482 63.5047 49.875 63.5066ZM47 52.9753C46.9994 52.3463 47.2034 51.7341 47.581 51.2311C47.9587 50.728 48.4896 50.3613 49.0937 50.1863V49.1003C49.0937 48.8931 49.1761 48.6944 49.3226 48.5479C49.4691 48.4014 49.6678 48.3191 49.875 48.3191C50.0822 48.3191 50.2809 48.4014 50.4274 48.5479C50.5739 48.6944 50.6562 48.8931 50.6562 49.1003V50.1628C51.2787 50.3247 51.8298 50.6888 52.2229 51.1978C52.6161 51.7069 52.8289 52.3322 52.8281 52.9753C52.8281 53.1825 52.7458 53.3813 52.5993 53.5278C52.4528 53.6743 52.2541 53.7566 52.0469 53.7566C51.8397 53.7566 51.641 53.6743 51.4944 53.5278C51.3479 53.3813 51.2656 53.1825 51.2656 52.9753C51.2662 52.7518 51.2107 52.5318 51.1042 52.3352C50.9978 52.1387 50.8438 51.972 50.6562 51.8503V54.4285C51.2783 54.5911 51.829 54.9553 52.222 55.4642C52.615 55.9731 52.8281 56.598 52.8281 57.241C52.8281 57.884 52.615 58.5088 52.222 59.0177C51.829 59.5266 51.2783 59.8909 50.6562 60.0535V61.116C50.6562 61.3232 50.5739 61.5219 50.4274 61.6684C50.2809 61.8149 50.0822 61.8972 49.875 61.8972C49.6678 61.8972 49.4691 61.8149 49.3226 61.6684C49.1761 61.5219 49.0937 61.3232 49.0937 61.116V60.0535C48.4713 59.8916 47.9202 59.5275 47.5271 59.0185C47.1339 58.5094 46.9211 57.8842 46.9219 57.241C46.9219 57.0338 47.0042 56.8351 47.1507 56.6885C47.2972 56.542 47.4959 56.4597 47.7031 56.4597C47.9103 56.4597 48.109 56.542 48.2556 56.6885C48.4021 56.8351 48.4844 57.0338 48.4844 57.241C48.4838 57.4656 48.5392 57.6868 48.6456 57.8846C48.752 58.0824 48.906 58.2505 49.0937 58.3738V55.7722C48.4897 55.5944 47.9593 55.2259 47.582 54.7218C47.2046 54.2177 47.0004 53.6051 47 52.9753Z" fill="black"/>
<path d="M51.2656 57.241C51.2662 57.0175 51.2107 56.7974 51.1042 56.6008C50.9978 56.4043 50.8438 56.2376 50.6562 56.116V58.3738C50.844 58.2505 50.998 58.0824 51.1044 57.8846C51.2108 57.6868 51.2662 57.4656 51.2656 57.241Z" fill="black"/>
<path d="M49.0938 51.9128C48.9288 52.0366 48.7949 52.197 48.7027 52.3814C48.6105 52.5658 48.5625 52.7692 48.5625 52.9753C48.5625 53.1815 48.6105 53.3849 48.7027 53.5693C48.7949 53.7537 48.9288 53.9141 49.0938 54.0378V51.9128Z" fill="black"/>
</svg>
