<svg width="100" height="100" viewBox="0 0 100 100" fill="none" xmlns="http://www.w3.org/2000/svg">
<circle cx="50" cy="50" r="50" fill="#FFEE00"/>
<path d="M49.5 58.572C50.2947 58.572 50.9389 57.9278 50.9389 57.1331C50.9389 56.3384 50.2947 55.6942 49.5 55.6942C48.7053 55.6942 48.0611 56.3384 48.0611 57.1331C48.0611 57.9278 48.7053 58.572 49.5 58.572Z" fill="black"/>
<path d="M49.5 43.3057C50.2947 43.3057 50.9389 42.6614 50.9389 41.8668C50.9389 41.0721 50.2947 40.4279 49.5 40.4279C48.7053 40.4279 48.0611 41.0721 48.0611 41.8668C48.0611 42.6614 48.7053 43.3057 49.5 43.3057Z" fill="black"/>
<path d="M69.8408 29.1602C69.0936 28.412 68.0995 28 67.0416 28H51.9674C50.9099 28 49.9157 28.4119 49.1679 29.1597L29.1599 49.1678C28.4119 49.9157 28 50.9098 28 51.967C28 53.0244 28.412 54.0185 29.1599 54.7659L44.2338 69.8398C44.9814 70.588 45.9755 71 47.0329 71C48.0902 71 49.0843 70.5881 49.8322 69.8401L69.8403 49.8321C70.5881 49.0843 71 48.0901 71 47.0326V31.9584C71 30.9005 70.588 29.9063 69.8408 29.1602ZM49.5001 37.9082C51.6828 37.9082 53.4585 39.684 53.4585 41.8667C53.4585 44.0493 51.6828 45.8251 49.5001 45.8251C47.3174 45.8251 45.5416 44.0493 45.5416 41.8667C45.5416 39.684 47.3174 37.9082 49.5001 37.9082ZM49.5001 61.0916C47.3174 61.0916 45.5416 59.3158 45.5416 57.1332C45.5416 54.9505 47.3174 53.1747 49.5001 53.1747C51.6828 53.1747 53.4585 54.9505 53.4585 57.1332C53.4585 59.3158 51.6828 61.0916 49.5001 61.0916ZM57.5961 50.7597H41.4041C40.7083 50.7597 40.1443 50.1956 40.1443 49.4999C40.1443 48.8042 40.7083 48.2402 41.4041 48.2402H57.5961C58.2918 48.2402 58.8559 48.8042 58.8559 49.4999C58.8559 50.1956 58.2919 50.7597 57.5961 50.7597ZM62.9935 37.2662C62.2981 37.2662 61.7337 36.7019 61.7337 36.0065C61.7337 35.3111 62.2981 34.7467 62.9935 34.7467C63.6889 34.7467 64.2533 35.3111 64.2533 36.0065C64.2533 36.7019 63.6889 37.2662 62.9935 37.2662Z" fill="black"/>
</svg>
